<?xml version="1.0" encoding="UTF-8" standalone="no"?>
<!DOCTYPE svg PUBLIC "-//W3C//DTD SVG 1.1//EN"
 "http://www.w3.org/Graphics/SVG/1.1/DTD/svg11.dtd">
<!-- Generated by graphviz version 2.40.1 (20161225.0304)
 -->
<!-- Title: G Pages: 1 -->
<svg width="152pt" height="300pt"
 viewBox="0.00 0.00 151.83 299.60" xmlns="http://www.w3.org/2000/svg" xmlns:xlink="http://www.w3.org/1999/xlink">
<g id="graph0" class="graph" transform="scale(1 1) rotate(0) translate(4 295.6)">
<title>G</title>
<polygon fill="#ffffff" stroke="transparent" points="-4,4 -4,-295.6 147.8292,-295.6 147.8292,4 -4,4"/>
<!-- I -->
<g id="node1" class="node">
<title>I</title>
<ellipse fill="#000000" stroke="#000000" cx="31.6802" cy="-1.8" rx="1.8" ry="1.8"/>
</g>
<!-- A -->
<g id="node2" class="node">
<title>A</title>
<ellipse fill="none" stroke="#000000" cx="31.6802" cy="-57.6" rx="31.8613" ry="18"/>
<text text-anchor="middle" x="31.6802" y="-53.4" font-family="Times,serif" font-size="14.00" fill="#000000">(1) A</text>
</g>
<!-- I&#45;&gt;A -->
<g id="edge1" class="edge">
<title>I&#45;&gt;A</title>
<path fill="none" stroke="#000000" stroke-dasharray="1,5" d="M31.6802,-3.6566C31.6802,-7.8411 31.6802,-18.4846 31.6802,-29.2224"/>
<polygon fill="#000000" stroke="#000000" points="28.1803,-29.3386 31.6802,-39.3386 35.1803,-29.3387 28.1803,-29.3386"/>
</g>
<!-- C -->
<g id="node4" class="node">
<title>C</title>
<ellipse fill="none" stroke="#000000" cx="71.6802" cy="-129.6" rx="31.2988" ry="18"/>
<text text-anchor="middle" x="71.6802" y="-125.4" font-family="Times,serif" font-size="14.00" fill="#000000">(2) C</text>
</g>
<!-- A&#45;&gt;C -->
<g id="edge2" class="edge">
<title>A&#45;&gt;C</title>
<path fill="none" stroke="#000000" d="M41.363,-75.0292C46.0798,-83.5193 51.8508,-93.9071 57.0872,-103.3326"/>
<polygon fill="#000000" stroke="#000000" points="54.1704,-105.2895 62.0864,-112.3313 60.2895,-101.89 54.1704,-105.2895"/>
</g>
<!-- B -->
<g id="node3" class="node">
<title>B</title>
<ellipse fill="none" stroke="#000000" cx="112.6802" cy="-57.6" rx="31.2988" ry="18"/>
<text text-anchor="middle" x="112.6802" y="-53.4" font-family="Times,serif" font-size="14.00" fill="#000000">(2) B</text>
</g>
<!-- B&#45;&gt;C -->
<g id="edge3" class="edge">
<title>B&#45;&gt;C</title>
<path fill="none" stroke="#000000" d="M102.7552,-75.0292C97.8702,-83.6078 91.8819,-94.1238 86.4704,-103.6268"/>
<polygon fill="#000000" stroke="#000000" points="83.4207,-101.9095 81.5137,-112.3313 89.5036,-105.3734 83.4207,-101.9095"/>
</g>
<!-- D -->
<g id="node5" class="node">
<title>D</title>
<ellipse fill="none" stroke="#000000" cx="41.6802" cy="-201.6" rx="31.8613" ry="18"/>
<text text-anchor="middle" x="41.6802" y="-197.4" font-family="Times,serif" font-size="14.00" fill="#000000">(1) D</text>
</g>
<!-- C&#45;&gt;D -->
<g id="edge4" class="edge">
<title>C&#45;&gt;D</title>
<path fill="none" stroke="#000000" d="M64.2644,-147.3978C60.8495,-155.5936 56.7228,-165.4976 52.9362,-174.5855"/>
<polygon fill="#000000" stroke="#000000" points="49.626,-173.43 49.0106,-184.007 56.0876,-176.1224 49.626,-173.43"/>
</g>
<!-- E -->
<g id="node7" class="node">
<title>E</title>
<ellipse fill="none" stroke="#000000" cx="101.6802" cy="-273.6" rx="27" ry="18"/>
<text text-anchor="middle" x="101.6802" y="-269.4" font-family="Times,serif" font-size="14.00" fill="#000000">E</text>
</g>
<!-- C&#45;&gt;E -->
<g id="edge6" class="edge">
<title>C&#45;&gt;E</title>
<path fill="none" stroke="#000000" d="M75.419,-147.5465C80.539,-172.1226 89.7842,-216.4992 95.8265,-245.5026"/>
<polygon fill="#000000" stroke="#000000" points="92.4281,-246.3513 97.8942,-255.4273 99.281,-244.9236 92.4281,-246.3513"/>
</g>
<!-- D2 -->
<g id="node6" class="node">
<title>D2</title>
<ellipse fill="none" stroke="#000000" cx="29.6802" cy="-273.6" rx="27" ry="18"/>
<text text-anchor="middle" x="29.6802" y="-269.4" font-family="Times,serif" font-size="14.00" fill="#000000">D</text>
</g>
<!-- D&#45;&gt;D2 -->
<g id="edge7" class="edge">
<title>D&#45;&gt;D2</title>
<path fill="none" stroke="#000000" stroke-width="2" d="M38.6521,-219.7686C37.3489,-227.5875 35.7955,-236.9077 34.3505,-245.5779"/>
<polygon fill="#000000" stroke="#000000" stroke-width="2" points="30.8574,-245.2472 32.6657,-255.6866 37.7622,-246.3981 30.8574,-245.2472"/>
</g>
<!-- D&#45;&gt;E -->
<g id="edge5" class="edge">
<title>D&#45;&gt;E</title>
<path fill="none" stroke="#000000" d="M55.2951,-217.9379C63.1523,-227.3666 73.1726,-239.3909 81.8879,-249.8493"/>
<polygon fill="#000000" stroke="#000000" points="79.4408,-252.38 88.5315,-257.8216 84.8184,-247.8987 79.4408,-252.38"/>
</g>
</g>
</svg>
